<?xml version="1.0" encoding="iso-8859-1"?>
<!-- Generator: Adobe Illustrator 19.0.0, SVG Export Plug-In . SVG Version: 6.00 Build 0)  -->
<svg version="1.1" id="Layer_1" xmlns="http://www.w3.org/2000/svg" xmlns:xlink="http://www.w3.org/1999/xlink" x="0px" y="0px"
	 viewBox="0 0 512.001 512.001" style="enable-background:new 0 0 512.001 512.001;" xml:space="preserve">
<g>
	<g>
		<path d="M336.017,172.025c-6.5-6.502-17.042-6.502-23.544,0s-6.502,17.042,0,23.544c16.142,16.142,25.032,37.604,25.032,60.431
			s-8.89,44.289-25.032,60.431c-6.502,6.5-6.502,17.042,0,23.544c6.5,6.502,17.042,6.502,23.544,0
			c22.432-22.43,34.784-52.254,34.784-83.975C370.801,224.279,358.448,194.456,336.017,172.025z"/>
	</g>
</g>
<g>
	<g>
		<path d="M386.221,121.821c-6.501-6.502-17.042-6.502-23.544,0c-6.502,6.502-6.502,17.042,0,23.544
			c61.004,61.004,61.004,160.266,0,221.271c-6.502,6.502-6.502,17.042,0,23.544c6.5,6.502,17.042,6.503,23.544,0
			C460.207,316.193,460.207,195.808,386.221,121.821z"/>
	</g>
</g>
<g>
	<g>
		<path d="M435.861,72.181c-6.499-6.502-17.041-6.502-23.544,0c-6.502,6.5-6.502,17.042,0,23.544
			c88.376,88.376,88.376,232.175,0,320.551c-6.502,6.502-6.502,17.042,0,23.544c6.5,6.502,17.042,6.503,23.544,0
			c49.1-49.1,76.14-114.381,76.14-183.819S484.96,121.281,435.861,72.181z"/>
	</g>
</g>
<g>
	<g>
		<path d="M228.99,111.501L79.928,170.56h-63.28C7.454,170.56,0,178.014,0,187.208v137.583c0,9.194,7.454,16.648,16.648,16.648
			h63.244l149.1,59.061c10.852,4.297,22.779-3.659,22.779-15.478V126.978C251.771,115.224,239.895,107.18,228.99,111.501z
			 M33.296,308.143V203.856H67.8l0.018,104.287H33.296z M101.103,197.985l117.371-46.504v209.039l-117.359-46.488
			C101.117,243.887,101.111,212.295,101.103,197.985z"/>
	</g>
</g>
<g>
</g>
<g>
</g>
<g>
</g>
<g>
</g>
<g>
</g>
<g>
</g>
<g>
</g>
<g>
</g>
<g>
</g>
<g>
</g>
<g>
</g>
<g>
</g>
<g>
</g>
<g>
</g>
<g>
</g>
</svg>
